<?xml version="1.0" standalone="no"?>
<!DOCTYPE svg PUBLIC "-//W3C//DTD SVG 20010904//EN"
 "http://www.w3.org/TR/2001/REC-SVG-20010904/DTD/svg10.dtd">
<svg version="1.0" xmlns="http://www.w3.org/2000/svg"
 width="1008.000000pt" height="712.000000pt" viewBox="0 0 1008.000000 712.000000"
 preserveAspectRatio="xMidYMid meet">
<metadata>
Created by potrace 1.16, written by Peter Selinger 2001-2019
</metadata>
<g transform="translate(0.000000,712.000000) scale(0.100000,-0.100000)"
fill="#34d399" stroke="none">
<path d="M1261 6440 c-248 -66 -440 -245 -528 -495 -28 -80 -28 -80 -28 -2505
0 -2321 1 -2428 18 -2495 43 -161 149 -323 269 -408 80 -57 122 -78 228 -113
85 -29 85 -29 3895 -29 3668 0 3812 1 3875 18 226 64 408 228 496 445 58 144
55 25 51 2610 -4 2205 -5 2371 -21 2432 -24 88 -96 234 -147 295 -96 116 -241
209 -386 245 -77 19 -129 20 -3863 19 -3710 0 -3786 0 -3859 -19z m7621 -311
c125 -26 233 -114 291 -237 32 -67 32 -67 32 -317 l0 -250 -4079 -3 c-3007 -1
-4082 1 -4092 9 -18 15 -20 391 -3 471 34 160 149 281 309 324 62 17 7462 20
7542 3z m-4377 -1555 c-258 -131 -477 -336 -612 -573 -139 -244 -209 -560
-183 -821 55 -527 340 -942 800 -1162 97 -47 95 -46 87 -54 -18 -18 -410 103
-606 187 -281 121 -582 311 -836 529 -192 166 -535 543 -535 590 0 22 135 200
245 323 359 402 781 704 1230 880 122 48 350 126 410 140 11 3 36 5 55 5 31 1
26 -3 -55 -44z m1350 1 c400 -121 790 -329 1130 -604 101 -81 335 -312 422
-415 101 -120 213 -270 213 -285 0 -38 -260 -332 -439 -496 -350 -322 -751
-567 -1164 -711 -122 -42 -363 -107 -380 -101 -6 2 43 31 109 66 335 173 591
468 707 813 170 505 36 1079 -338 1453 -108 108 -215 186 -367 267 -113 59
-113 59 -63 54 28 -2 104 -21 170 -41z m-490 -214 c222 -61 365 -142 516 -293
89 -89 150 -171 199 -268 242 -481 110 -1053 -318 -1376 -322 -245 -746 -288
-1110 -114 -186 89 -327 210 -439 377 -159 238 -217 543 -157 834 87 431 438
770 881 854 113 21 324 14 428 -14z m-2685 -472 c0 -6 -26 -41 -58 -78 -102
-115 -230 -282 -319 -413 -86 -126 -86 -126 -21 -225 404 -616 1156 -1196
1851 -1427 807 -269 1578 -214 2362 169 568 277 1131 765 1474 1278 52 77 52
77 -5 165 -99 153 -358 484 -395 507 -5 4 -9 13 -9 21 0 12 110 14 823 12
l822 -3 0 -1435 c0 -1435 0 -1435 -23 -1493 -50 -124 -184 -226 -322 -248 -42
-6 -1370 -9 -3795 -7 -3730 3 -3730 3 -3798 36 -126 62 -215 183 -237 323 -10
67 -13 2790 -3 2816 7 18 1653 19 1653 2z"/>
<path d="M5450 4061 c-139 -30 -238 -165 -227 -311 14 -212 232 -341 423 -251
115 54 172 157 161 292 -9 111 -80 216 -171 254 -41 17 -141 26 -186 16z"/>
<path d="M4979 3945 c-147 -30 -262 -96 -368 -211 -108 -118 -166 -271 -164
-434 1 -120 23 -212 75 -320 83 -173 265 -310 458 -346 249 -47 493 40 650
229 106 128 150 260 150 445 0 126 -7 147 -40 117 -32 -29 -124 -58 -204 -64
-79 -6 -79 -6 -81 -66 -1 -79 -18 -133 -58 -192 -73 -105 -184 -159 -311 -151
-122 9 -223 76 -283 189 -24 48 -27 64 -27 149 0 80 4 103 24 145 49 100 156
176 269 191 51 7 53 8 46 33 -18 67 -17 157 4 217 12 32 22 64 24 69 3 15 -90
15 -164 0z"/>
</g>
</svg>



